# xmcd
#
# Track frame offsets: 
#        150
#        14442
#        27233
#        39943
#        52928
#        66821
#        77090
#        87867
#        100465
#        107589
#        117417
#        130663
#        142645
#        156287
#        167408
#        179230
#        200544
#        212528
#        223909
#        243731
#        254803
#        267822
#        280362
#        293692
#        315009
#        325350
#        335814
#        348783
#
# Disc length: 4764 seconds
#
# Revision: 9
# Processed by: cddbd v1.5.2PL0 Copyright (c) Steve Scherf et al.
# Submitted via: ExactAudioCopy v1.3
#
DISCID=9d129a1c
DTITLE=John Mayall and The Bluesbreakers - A Hard Road [2006 Reissue]
DYEAR=1967
DGENRE=Blues
TTITLE0=A hard road
TTITLE1=It's over
TTITLE2=You don't love me
TTITLE3=The stumble
TTITLE4=Another kinda love
TTITLE5=Hit the highway
TTITLE6=Leaping Christine
TTITLE7=Dust my blues
TTITLE8=There's always work
TTITLE9=The same way
TTITLE10=The super-natural
TTITLE11=Top of the hill
TTITLE12=Someday after a while (You'll be sorry)
TTITLE13=Living alone
TTITLE14=Bonus: Looking back [Single]
TTITLE15=Bonus: So many roads [Single]
TTITLE16=Bonus: Mama, talk to your daughter
TTITLE17=Bonus: Alabama blues
TTITLE18=Bonus: All My Life (With Paul Butterfield)
TTITLE19=Bonus: Ridin' on the L&N [with Paul Butterfield]
TTITLE20=Bonus: Eagle Eye [with Paul Butterfield]
TTITLE21=Bonus: Little By Little [with Paul Butterfield]
TTITLE22=Bonus: Sitting in the rain [Single]
TTITLE23=Bonus: Out of reach [Single]
TTITLE24=Bonus: No more tears [BBC live]
TTITLE25=Bonus: Ridin' on the L&N [BBC live]
TTITLE26=Bonus: Sitting in the rain [BBC live]
TTITLE27=Bonus: Leaping Christine [BBC live]
EXTD=YEAR: 1966
EXTT0=
EXTT1=
EXTT2=
EXTT3=
EXTT4=
EXTT5=
EXTT6=
EXTT7=
EXTT8=
EXTT9=
EXTT10=
EXTT11=
EXTT12=
EXTT13=
EXTT14=
EXTT15=
EXTT16=
EXTT17=
EXTT18=
EXTT19=
EXTT20=
EXTT21=
EXTT22=
EXTT23=
EXTT24=
EXTT25=
EXTT26=
EXTT27=
PLAYORDER=
